<svg width="48" height="48" viewBox="0 0 48 48" fill="none" xmlns="http://www.w3.org/2000/svg">
<path d="M24 7.5C14.8875 7.5 7.5 14.8875 7.5 24C7.5 33.1125 14.8875 40.5 24 40.5C33.1125 40.5 40.5 33.1125 40.5 24C40.5 14.8875 33.1125 7.5 24 7.5ZM24 10.5C31.4557 10.5 37.5 16.5443 37.5 24C37.5 30.7647 32.5185 36.351 26.0273 37.3315V28.7373H29.6587L30.2021 24.4087H26.0273V21.3779C26.0273 20.1772 26.8399 19.5601 27.7017 19.5601C28.5634 19.5601 30.3486 19.5352 30.3486 19.5352V15.6621C30.3486 15.6621 28.7599 15.479 27.1377 15.479C25.7749 15.479 24.2743 15.8631 23.0728 17.0991C21.8503 18.3561 21.6738 20.2123 21.6738 22.478V24.4087H18.0352V28.7373H21.6738V37.2861C15.329 36.1817 10.5 30.6608 10.5 24C10.5 16.5443 16.5443 10.5 24 10.5Z" fill="#000E36"/>
</svg>
