<svg width="44" height="44" viewBox="0 0 44 44" fill="none" xmlns="http://www.w3.org/2000/svg">
<path d="M13 0C5.83248 0 0 5.83248 0 13V31C0 38.1675 5.83248 44 13 44H31C38.1675 44 44 38.1675 44 31V13C44 5.83248 38.1675 0 31 0H13ZM12.5 4H31C37.0865 4 40.5 6.91352 40.5 13V31C40.5 37.0865 37.0865 40.5 31 40.5H12.5C6.41352 40.5 3.5 37.0865 3.5 31V13C3.5 6.91352 6.41352 4 12.5 4ZM34 8C33.4696 8 32.9609 8.21071 32.5858 8.58579C32.2107 8.96086 32 9.46957 32 10C32 10.5304 32.2107 11.0391 32.5858 11.4142C32.9609 11.7893 33.4696 12 34 12C34.5304 12 35.0391 11.7893 35.4142 11.4142C35.7893 11.0391 36 10.5304 36 10C36 9.46957 35.7893 8.96086 35.4142 8.58579C35.0391 8.21071 34.5304 8 34 8ZM22 11C15.9367 11 11 15.9367 11 22C11 28.0633 15.9367 33 22 33C28.0633 33 33 28.0633 33 22C33 15.9367 28.0633 11 22 11ZM22 14C26.9824 14 30 16.5176 30 21.5C30 26.4824 26.9824 29.5 22 29.5C17.0176 29.5 14.0104 26.4824 14.0104 21.5C14.0104 16.5176 17.0176 14 22 14Z" fill="#000E36"/>
</svg>
